<svg xmlns="http://www.w3.org/2000/svg" width="1600" height="900" viewBox="0 0 1600 900">
  <defs>
    <linearGradient id="g3" x1="0" y1="0" x2="1" y2="1">
      <stop offset="0%" stop-color="#d4af37" stop-opacity="0.22"/>
      <stop offset="100%" stop-color="#0ea5e9" stop-opacity="0.25"/>
    </linearGradient>
  </defs>

  <rect width="100%" height="100%" fill="#0f172a"/>
  <rect width="100%" height="100%" fill="url(#g3)"/>

  <!-- Chart panel -->
  <g transform="translate(220,220)">
    <rect x="0" y="0" width="480" height="300" rx="16" fill="#0b1220" stroke="#1f2937" stroke-width="2"/>
    <path d="M40 240 L140 160 L240 200 L340 120 L440 140" fill="none" stroke="#10b981" stroke-width="4"/>
    <g stroke="#334155" stroke-width="1" opacity=".5">
      <line x1="40" y1="60" x2="440" y2="60"/>
      <line x1="40" y1="120" x2="440" y2="120"/>
      <line x1="40" y1="180" x2="440" y2="180"/>
      <line x1="40" y1="240" x2="440" y2="240"/>
    </g>
    <rect x="40" y="240" width="400" height="2" fill="#334155"/>
  </g>

  <!-- Badge (certificate) -->
  <g transform="translate(800,240)">
    <circle cx="0" cy="0" r="80" fill="#d4af37" opacity=".9"/>
    <polygon points="-70,0 -50,18 -56,44 -30,34 -8,52 -4,24 20,16 0,0 20,-18 -8,-16 -10,-44 -30,-18 -58,-28 -50,-4" fill="#fff" opacity=".95"/>
  </g>

  <!-- Lab beaker -->
  <g transform="translate(920,460)">
    <rect x="0" y="0" width="220" height="200" rx="20" fill="#0b1220" stroke="#1f2937" stroke-width="2"/>
    <path d="M50 40 h120 v20 c0 44 -120 44 -120 0z" fill="#0ea5e9" opacity=".85"/>
    <rect x="50" y="60" width="120" height="70" rx="12" fill="#0ea5e9" opacity=".35"/>
    <circle cx="140" cy="130" r="6" fill="#0ea5e9"/>
    <circle cx="80" cy="120" r="5" fill="#0ea5e9"/>
  </g>
</svg>