<svg xmlns="http://www.w3.org/2000/svg" width="1600" height="900" viewBox="0 0 1600 900">
  <defs>
    <linearGradient id="g2" x1="0" y1="0" x2="1" y2="1">
      <stop offset="0%" stop-color="#0ea5e9" stop-opacity="0.25"/>
      <stop offset="100%" stop-color="#10b981" stop-opacity="0.22"/>
    </linearGradient>
    <radialGradient id="rg3" cx="85%" cy="15%" r="60%">
      <stop offset="0%" stop-color="#0ea5e9" stop-opacity="0.28"/>
      <stop offset="100%" stop-color="transparent"/>
    </radialGradient>
  </defs>

  <rect width="100%" height="100%" fill="#0f172a"/>
  <rect width="100%" height="100%" fill="url(#g2)"/>
  <rect width="100%" height="100%" fill="url(#rg3)"/>

  <!-- Curved routes -->
  <path d="M 80 720 C 360 540, 580 520, 920 600 S 1380 780, 1540 660" fill="none" stroke="#0ea5e9" stroke-width="4" opacity=".35"/>
  <path d="M 40 640 C 280 520, 560 480, 860 520 S 1280 620, 1560 540" fill="none" stroke="#10b981" stroke-width="3" opacity=".25"/>

  <!-- Pins -->
  <g fill="#d4af37">
    <path d="M260 640c0-22 18-40 40-40s40 18 40 40c0 30-40 74-40 74s-40-44-40-74z"/>
    <circle cx="300" cy="640" r="10" fill="#111827"/>
    <path d="M980 580c0-20 16-36 36-36s36 16 36 36c0 28-36 68-36 68s-36-40-36-68z"/>
    <circle cx="1016" cy="580" r="9" fill="#111827"/>
  </g>

  <!-- Delivery truck -->
  <g transform="translate(480,560)">
    <rect x="0" y="0" width="240" height="86" rx="12" fill="#0b1220" stroke="#1f2937" stroke-width="3"/>
    <rect x="180" y="-36" width="80" height="36" rx="8" fill="#0b1220" stroke="#1f2937" stroke-width="3"/>
    <circle cx="60" cy="96" r="20" fill="#0b1220" stroke="#1f2937" stroke-width="5"/>
    <circle cx="180" cy="96" r="20" fill="#0b1220" stroke="#1f2937" stroke-width="5"/>
    <rect x="12" y="12" width="160" height="24" rx="8" fill="#0ea5e9" opacity=".85"/>
  </g>

  <!-- Dots scatter -->
  <g fill="#7dd3fc" opacity=".18">
    <circle cx="240" cy="280" r="6"/><circle cx="320" cy="220" r="5"/><circle cx="420" cy="320" r="4"/>
    <circle cx="540" cy="260" r="5"/><circle cx="620" cy="340" r="6"/><circle cx="760" cy="300" r="5"/>
    <circle cx="880" cy="240" r="4"/><circle cx="1120" cy="320" r="6"/>
  </g>
</svg>